<svg width="102" height="92" viewBox="0 0 102 92" fill="none" xmlns="http://www.w3.org/2000/svg">
<g clip-path="url(#clip0)">
<path d="M0.267607 0.433292C0.00961082 0.977123 -0.0825307 2.97116 0.083324 4.04588C0.267607 5.18533 0.857312 7.21822 1.15217 7.67141C1.24431 7.81385 1.3733 8.12461 1.44702 8.37063C1.61287 8.96625 2.88442 11.1027 3.67684 12.1386C5.83295 14.8966 8.76305 17.2273 11.343 18.1984C12.7251 18.7422 12.891 19.0401 11.8221 19.1048C9.81346 19.2213 6.60694 17.8359 4.22969 15.8289C3.47413 15.1944 3.47413 15.544 4.21126 16.5022C6.45951 19.3897 8.32077 21.2801 10.2742 22.6656C11.6931 23.6756 13.5544 24.6337 14.7891 24.9575C16.7056 25.4624 17.0189 25.6567 16.1344 25.7861C15.6552 25.8638 12.9463 25.566 12.5777 25.4106C12.4856 25.3718 12.3566 25.3977 12.3013 25.4754C12.0249 25.7861 15.2314 27.5471 17.7008 28.4276C20.6309 29.4894 23.5794 30.0332 29.1632 30.59C31.3193 30.8101 31.522 30.836 33.4938 31.2892C40.1464 32.8171 46.7991 36.3779 54.2994 42.4377C57.082 44.6778 63.6609 51.2296 64.2322 52.3043C64.4349 52.7057 64.7851 52.5504 65.8723 51.5922C67.5677 50.0772 70.2398 47.7206 70.8295 47.2286C71.5114 46.6459 76.5055 42.2694 79.2513 39.848C80.4307 38.8122 81.6285 37.7634 81.9418 37.5044C82.9922 36.6498 83.3055 36.3779 83.6188 36.0412C83.8031 35.86 84.0979 35.7046 84.2822 35.7046C84.6139 35.7046 84.6323 36.0801 84.6692 48.6788L84.7245 61.666L85.3142 61.7048C86.0329 61.7566 89.3131 61.161 90.6768 60.7337C94.0308 59.6979 97.2373 57.4448 98.6378 55.1271C99.8173 53.1719 99.7804 53.392 99.9278 46.7107C100.094 39.848 99.9463 12.2551 99.762 12.1127C99.6145 11.9962 96.2974 12.4235 95.2102 12.6954C91.3034 13.6794 89.7923 14.6247 83.6372 19.9594C83.3239 20.2313 82.7342 20.7363 82.3288 21.0729C81.389 21.8369 80.8361 22.316 79.067 23.818C78.293 24.4784 76.5055 25.9933 75.1049 27.1716C73.7044 28.3499 72.2301 29.6059 71.8247 29.9555C71.4193 30.2922 70.7927 30.8231 70.4426 31.1079C70.0924 31.4057 69.5027 31.8978 69.1526 32.1956C68.8024 32.5063 67.9732 33.1926 67.3097 33.7364C66.6463 34.2932 65.8723 34.9536 65.5775 35.2125C64.5824 36.1319 63.8452 35.7175 63.3477 33.9566C62.758 31.8589 61.5785 28.8808 60.8414 27.5989C60.7308 27.3917 60.5466 27.081 60.4544 26.8997C59.146 24.5561 57.8007 22.9116 57.1926 22.9505C56.7503 22.9764 56.2528 23.2483 56.2528 23.4813C56.2528 23.8698 57.0171 23.326 55.377 21.8757C53.958 20.6197 49.5633 18.6387 48.0522 17.8229C44.4771 15.9066 39.6304 14.1326 35.0602 13.0838C33.715 12.7731 32.2127 11.9314 32.0652 11.8408C32.0284 11.8149 31.7431 11.6854 31.5404 11.5818C31.3377 11.4782 29.5133 11.1804 28.6103 11.0898C28.0575 11.038 26.7675 10.9085 25.7539 10.792C24.7404 10.6754 23.3767 10.5201 22.7133 10.4553C17.6271 9.96327 12.4303 9.06984 9.4449 8.18935C5.99881 7.16643 3.25299 5.49609 1.94458 3.59269C1.5023 2.95822 1.09688 2.10363 0.967882 1.58569C0.838884 1.08071 0.673029 0.510983 0.617745 0.30381L0.488746 -0.0716934L0.267607 0.433292Z" fill="url(#paint0_linear)"/>
<path d="M29.4213 34.8512C29.366 34.9547 29.3476 38.9558 29.3844 43.7596L29.4581 52.4738L29.9557 53.6133C30.5454 54.9599 31.5037 56.3454 32.4804 57.2518C33.8256 58.5078 36.1844 59.9191 38.1194 60.6054C39.3357 61.0327 42.2289 61.6283 43.5005 61.6931L44.8273 61.7708V51.7358V41.7008L43.9612 41.1311C40.552 38.904 36.037 36.8193 31.2272 35.2396C29.9188 34.8123 29.495 34.7217 29.4213 34.8512Z" fill="url(#paint1_linear)"/>
<path d="M10.791 87H0.869141V84.8516L5.43945 80.0469C6.56576 78.7643 7.12891 77.7454 7.12891 76.9902C7.12891 76.3783 6.99544 75.9128 6.72852 75.5938C6.46159 75.2747 6.07422 75.1152 5.56641 75.1152C5.0651 75.1152 4.6582 75.3301 4.3457 75.7598C4.0332 76.1829 3.87695 76.7135 3.87695 77.3516H0.576172C0.576172 76.4792 0.794271 75.6751 1.23047 74.9395C1.66667 74.1973 2.27214 73.6178 3.04688 73.2012C3.82161 72.7845 4.6875 72.5762 5.64453 72.5762C7.18099 72.5762 8.36263 72.931 9.18945 73.6406C10.0228 74.3503 10.4395 75.3691 10.4395 76.6973C10.4395 77.2572 10.3353 77.804 10.127 78.3379C9.91862 78.8652 9.5931 79.4219 9.15039 80.0078C8.71419 80.5872 8.00781 81.3652 7.03125 82.3418L5.19531 84.4609H10.791V87ZM15.459 78.5137H17.0117C18.2422 78.5137 18.8574 77.9115 18.8574 76.707C18.8574 76.2383 18.7109 75.8574 18.418 75.5645C18.125 75.265 17.7116 75.1152 17.1777 75.1152C16.7415 75.1152 16.3607 75.2422 16.0352 75.4961C15.7161 75.75 15.5566 76.0658 15.5566 76.4434H12.2656C12.2656 75.6947 12.474 75.0273 12.8906 74.4414C13.3073 73.8555 13.8835 73.3997 14.6191 73.0742C15.3613 72.7422 16.1751 72.5762 17.0605 72.5762C18.6426 72.5762 19.8861 72.9375 20.791 73.6602C21.696 74.3828 22.1484 75.3757 22.1484 76.6387C22.1484 77.2507 21.9596 77.8301 21.582 78.377C21.2109 78.9173 20.6673 79.3568 19.9512 79.6953C20.7064 79.9688 21.2988 80.3854 21.7285 80.9453C22.1582 81.4987 22.373 82.1855 22.373 83.0059C22.373 84.2754 21.8848 85.291 20.9082 86.0527C19.9316 86.8145 18.6491 87.1953 17.0605 87.1953C16.1296 87.1953 15.2637 87.0195 14.4629 86.668C13.6686 86.3099 13.0664 85.8184 12.6562 85.1934C12.2461 84.5618 12.041 83.8457 12.041 83.0449H15.3516C15.3516 83.4811 15.5273 83.8587 15.8789 84.1777C16.2305 84.4967 16.6634 84.6562 17.1777 84.6562C17.7572 84.6562 18.2194 84.4967 18.5645 84.1777C18.9095 83.8522 19.082 83.4388 19.082 82.9375C19.082 82.2214 18.903 81.7135 18.5449 81.4141C18.1868 81.1146 17.6921 80.9648 17.0605 80.9648H15.459V78.5137ZM67.8711 84.6562C68.3333 84.6562 68.6914 84.5326 68.9453 84.2852C69.1992 84.0312 69.3229 83.6797 69.3164 83.2305H72.4023C72.4023 84.3893 71.9857 85.3398 71.1523 86.082C70.3255 86.8242 69.2578 87.1953 67.9492 87.1953C66.4128 87.1953 65.2018 86.7135 64.3164 85.75C63.431 84.7865 62.9883 83.4518 62.9883 81.7461V81.6094C62.9883 80.5417 63.1836 79.6009 63.5742 78.7871C63.9714 77.9668 64.541 77.3385 65.2832 76.9023C66.0254 76.4596 66.9043 76.2383 67.9199 76.2383C69.2936 76.2383 70.3841 76.6191 71.1914 77.3809C71.9987 78.1426 72.4023 79.1745 72.4023 80.4766H69.3164C69.3164 79.9297 69.1829 79.5098 68.916 79.2168C68.6491 78.9238 68.291 78.7773 67.8418 78.7773C66.9889 78.7773 66.4909 79.321 66.3477 80.4082C66.3021 80.7533 66.2793 81.2285 66.2793 81.834C66.2793 82.8952 66.4062 83.6309 66.6602 84.041C66.9141 84.4512 67.3177 84.6562 67.8711 84.6562ZM73.3789 81.6191C73.3789 80.5645 73.584 79.627 73.9941 78.8066C74.4043 77.9798 74.9935 77.3451 75.7617 76.9023C76.5299 76.4596 77.4316 76.2383 78.4668 76.2383C80.0488 76.2383 81.2956 76.7298 82.207 77.7129C83.1185 78.6895 83.5742 80.0208 83.5742 81.707V81.8242C83.5742 83.4714 83.1152 84.7799 82.1973 85.75C81.2858 86.7135 80.0488 87.1953 78.4863 87.1953C76.9824 87.1953 75.7747 86.7461 74.8633 85.8477C73.9518 84.9427 73.4603 83.7188 73.3887 82.1758L73.3789 81.6191ZM76.6699 81.8242C76.6699 82.8008 76.8229 83.5169 77.1289 83.9727C77.4349 84.4284 77.8874 84.6562 78.4863 84.6562C79.6582 84.6562 80.2572 83.7546 80.2832 81.9512V81.6191C80.2832 79.7246 79.6777 78.7773 78.4668 78.7773C77.3665 78.7773 76.7708 79.5944 76.6797 81.2285L76.6699 81.8242ZM88.1348 76.4336L88.2422 77.6738C88.9909 76.7168 89.9967 76.2383 91.2598 76.2383C92.5944 76.2383 93.4961 76.7689 93.9648 77.8301C94.681 76.7689 95.7161 76.2383 97.0703 76.2383C99.2122 76.2383 100.312 77.5339 100.371 80.125V87H97.0703V80.3301C97.0703 79.7897 96.9792 79.3958 96.7969 79.1484C96.6146 78.901 96.2826 78.7773 95.8008 78.7773C95.1497 78.7773 94.6647 79.0671 94.3457 79.6465L94.3555 79.7832V87H91.0547V80.3496C91.0547 79.7962 90.9668 79.3958 90.791 79.1484C90.6152 78.901 90.2799 78.7773 89.7852 78.7773C89.1536 78.7773 88.6719 79.0671 88.3398 79.6465V87H85.0488V76.4336H88.1348Z" fill="white"/>
<path d="M28.6523 81.6387C28.6523 79.9655 29.0137 78.6471 29.7363 77.6836C30.459 76.7201 31.4681 76.2383 32.7637 76.2383C33.7077 76.2383 34.502 76.6094 35.1465 77.3516V72H38.4473V87H35.4883L35.3223 85.8672C34.6452 86.7526 33.7858 87.1953 32.7441 87.1953C31.4876 87.1953 30.4915 86.7135 29.7559 85.75C29.0202 84.7865 28.6523 83.416 28.6523 81.6387ZM31.9434 81.8438C31.9434 83.7188 32.4902 84.6562 33.584 84.6562C34.3132 84.6562 34.834 84.3503 35.1465 83.7383V79.7148C34.847 79.0898 34.3327 78.7773 33.6035 78.7773C32.5879 78.7773 32.0378 79.5977 31.9531 81.2383L31.9434 81.8438ZM39.9023 81.6191C39.9023 80.5645 40.1074 79.627 40.5176 78.8066C40.9277 77.9798 41.5169 77.3451 42.2852 76.9023C43.0534 76.4596 43.9551 76.2383 44.9902 76.2383C46.5723 76.2383 47.819 76.7298 48.7305 77.7129C49.6419 78.6895 50.0977 80.0208 50.0977 81.707V81.8242C50.0977 83.4714 49.6387 84.7799 48.7207 85.75C47.8092 86.7135 46.5723 87.1953 45.0098 87.1953C43.5059 87.1953 42.2982 86.7461 41.3867 85.8477C40.4753 84.9427 39.9837 83.7188 39.9121 82.1758L39.9023 81.6191ZM43.1934 81.8242C43.1934 82.8008 43.3464 83.5169 43.6523 83.9727C43.9583 84.4284 44.4108 84.6562 45.0098 84.6562C46.1816 84.6562 46.7806 83.7546 46.8066 81.9512V81.6191C46.8066 79.7246 46.2012 78.7773 44.9902 78.7773C43.89 78.7773 43.2943 79.5944 43.2031 81.2285L43.1934 81.8242ZM55.3809 73.8066V76.4336H57.1191V78.7188H55.3809V83.5527C55.3809 83.9499 55.4525 84.2266 55.5957 84.3828C55.7389 84.5391 56.0221 84.6172 56.4453 84.6172C56.7708 84.6172 57.0443 84.5977 57.2656 84.5586V86.9121C56.6732 87.1009 56.0547 87.1953 55.4102 87.1953C54.2773 87.1953 53.4408 86.9284 52.9004 86.3945C52.36 85.8607 52.0898 85.0501 52.0898 83.9629V78.7188H50.7422V76.4336H52.0898V73.8066H55.3809Z" fill="#F6AE2D"/>
</g>
<defs>
<linearGradient id="paint0_linear" x1="50" y1="61.708" x2="50" y2="-0.0716896" gradientUnits="userSpaceOnUse">
<stop stop-color="white"/>
<stop offset="1" stop-color="white" stop-opacity="0.35"/>
</linearGradient>
<linearGradient id="paint1_linear" x1="37.0963" y1="61.7708" x2="37.0963" y2="34.7967" gradientUnits="userSpaceOnUse">
<stop stop-color="white"/>
<stop offset="1" stop-color="white" stop-opacity="0.35"/>
</linearGradient>
<clipPath id="clip0">
<rect width="102" height="92" fill="white"/>
</clipPath>
</defs>
</svg>
