<svg width="102" height="84" viewBox="0 0 102 84" fill="none" xmlns="http://www.w3.org/2000/svg">
<g clip-path="url(#clip0)">
<path d="M0.267607 0.433292C0.00961083 0.977123 -0.0825307 2.97117 0.083324 4.04588C0.267607 5.18533 0.857312 7.21822 1.15217 7.67141C1.24431 7.81385 1.3733 8.12461 1.44702 8.37063C1.61287 8.96625 2.88443 11.1027 3.67684 12.1386C5.83295 14.8966 8.76305 17.2273 11.343 18.1984C12.7251 18.7422 12.891 19.0401 11.8221 19.1048C9.81346 19.2213 6.60694 17.8359 4.22969 15.8289C3.47413 15.1944 3.47413 15.544 4.21126 16.5022C6.45951 19.3897 8.32077 21.2801 10.2742 22.6656C11.6931 23.6756 13.5544 24.6337 14.7891 24.9575C16.7056 25.4624 17.0189 25.6567 16.1344 25.7861C15.6552 25.8638 12.9463 25.566 12.5777 25.4106C12.4856 25.3718 12.3566 25.3977 12.3013 25.4754C12.0249 25.7861 15.2314 27.5471 17.7008 28.4276C20.6309 29.4894 24.4162 29.9432 30 30.5C32 30.6994 31.0282 30.5468 33 31C39.6526 32.5279 46.799 36.3779 54.2994 42.4377C57.082 44.6778 63.6609 51.2296 64.2322 52.3043C64.4349 52.7057 64.7851 52.5504 65.8723 51.5922C67.5677 50.0772 70.2398 47.7206 70.8295 47.2286C71.5114 46.6459 76.5055 42.2694 79.2513 39.848C80.4307 38.8122 81.6285 37.7634 81.9418 37.5044C82.9922 36.6498 83.3055 36.3779 83.6188 36.0412C83.8031 35.86 84.0979 35.7046 84.2822 35.7046C84.6139 35.7046 84.6323 36.0801 84.6692 48.6788L84.7245 61.666L85.3142 61.7048C86.0329 61.7566 89.3131 61.161 90.6768 60.7337C94.0308 59.6979 97.2373 57.4448 98.6378 55.1271C99.8173 53.1719 99.7804 53.392 99.9278 46.7107C100.094 39.848 99.9463 12.2551 99.762 12.1127C99.6145 11.9962 96.2975 12.4235 95.2102 12.6954C91.3034 13.6794 89.7923 14.6247 83.6372 19.9594C83.3239 20.2313 82.7342 20.7363 82.3288 21.0729C81.389 21.8369 80.8361 22.316 79.067 23.818C78.293 24.4784 76.5055 25.9933 75.1049 27.1716C73.7044 28.3499 72.2301 29.6059 71.8247 29.9555C71.4193 30.2922 70.7927 30.8231 70.4426 31.1079C70.0924 31.4057 69.5027 31.8978 69.1526 32.1956C68.8024 32.5063 67.9732 33.1926 67.3097 33.7364C66.6463 34.2932 65.8723 34.9536 65.5775 35.2125C64.5823 36.1319 63.8452 35.7175 63.3477 33.9566C62.758 31.8589 61.5785 28.8808 60.8414 27.5989C60.7308 27.3917 60.5466 27.081 60.4544 26.8997C59.146 24.5561 57.1926 22.9505 57.1926 22.9505C57.1926 22.9505 56.1899 22.0309 55.5 21.5C52.9293 19.5218 49.5633 18.6387 48.0522 17.8229C44.4771 15.9066 39.6304 14.1326 35.0602 13.0838C33.715 12.7731 32.2127 11.9314 32.0652 11.8408C32.0284 11.8149 31.7431 11.6854 31.5404 11.5818C31.3377 11.4782 29.5133 11.1804 28.6103 11.0898C28.0575 11.038 26.7675 10.9085 25.7539 10.792C24.7404 10.6754 23.3767 10.52 22.7133 10.4553C17.6271 9.96327 12.4303 9.06983 9.4449 8.18935C5.99881 7.16643 3.25299 5.49609 1.94458 3.59269C1.5023 2.95822 1.09688 2.10363 0.967882 1.58569C0.838884 1.08071 0.673029 0.510984 0.617745 0.30381L0.488746 -0.0716934L0.267607 0.433292Z" fill="url(#paint0_linear)"/>
<path d="M10.791 79H0.869141V76.8516L5.43945 72.0469C6.56576 70.7643 7.12891 69.7454 7.12891 68.9902C7.12891 68.3783 6.99544 67.9128 6.72852 67.5938C6.46159 67.2747 6.07422 67.1152 5.56641 67.1152C5.0651 67.1152 4.6582 67.3301 4.3457 67.7598C4.0332 68.1829 3.87695 68.7135 3.87695 69.3516H0.576172C0.576172 68.4792 0.794271 67.6751 1.23047 66.9395C1.66667 66.1973 2.27214 65.6178 3.04688 65.2012C3.82161 64.7845 4.6875 64.5762 5.64453 64.5762C7.18099 64.5762 8.36263 64.931 9.18945 65.6406C10.0228 66.3503 10.4395 67.3691 10.4395 68.6973C10.4395 69.2572 10.3353 69.804 10.127 70.3379C9.91862 70.8652 9.5931 71.4219 9.15039 72.0078C8.71419 72.5872 8.00781 73.3652 7.03125 74.3418L5.19531 76.4609H10.791V79ZM15.459 70.5137H17.0117C18.2422 70.5137 18.8574 69.9115 18.8574 68.707C18.8574 68.2383 18.7109 67.8574 18.418 67.5645C18.125 67.265 17.7116 67.1152 17.1777 67.1152C16.7415 67.1152 16.3607 67.2422 16.0352 67.4961C15.7161 67.75 15.5566 68.0658 15.5566 68.4434H12.2656C12.2656 67.6947 12.474 67.0273 12.8906 66.4414C13.3073 65.8555 13.8835 65.3997 14.6191 65.0742C15.3613 64.7422 16.1751 64.5762 17.0605 64.5762C18.6426 64.5762 19.8861 64.9375 20.791 65.6602C21.696 66.3828 22.1484 67.3757 22.1484 68.6387C22.1484 69.2507 21.9596 69.8301 21.582 70.377C21.2109 70.9173 20.6673 71.3568 19.9512 71.6953C20.7064 71.9688 21.2988 72.3854 21.7285 72.9453C22.1582 73.4987 22.373 74.1855 22.373 75.0059C22.373 76.2754 21.8848 77.291 20.9082 78.0527C19.9316 78.8145 18.6491 79.1953 17.0605 79.1953C16.1296 79.1953 15.2637 79.0195 14.4629 78.668C13.6686 78.3099 13.0664 77.8184 12.6562 77.1934C12.2461 76.5618 12.041 75.8457 12.041 75.0449H15.3516C15.3516 75.4811 15.5273 75.8587 15.8789 76.1777C16.2305 76.4967 16.6634 76.6562 17.1777 76.6562C17.7572 76.6562 18.2194 76.4967 18.5645 76.1777C18.9095 75.8522 19.082 75.4388 19.082 74.9375C19.082 74.2214 18.903 73.7135 18.5449 73.4141C18.1868 73.1146 17.6921 72.9648 17.0605 72.9648H15.459V70.5137ZM67.8711 76.6562C68.3333 76.6562 68.6914 76.5326 68.9453 76.2852C69.1992 76.0312 69.3229 75.6797 69.3164 75.2305H72.4023C72.4023 76.3893 71.9857 77.3398 71.1523 78.082C70.3255 78.8242 69.2578 79.1953 67.9492 79.1953C66.4128 79.1953 65.2018 78.7135 64.3164 77.75C63.431 76.7865 62.9883 75.4518 62.9883 73.7461V73.6094C62.9883 72.5417 63.1836 71.6009 63.5742 70.7871C63.9714 69.9668 64.541 69.3385 65.2832 68.9023C66.0254 68.4596 66.9043 68.2383 67.9199 68.2383C69.2936 68.2383 70.3841 68.6191 71.1914 69.3809C71.9987 70.1426 72.4023 71.1745 72.4023 72.4766H69.3164C69.3164 71.9297 69.1829 71.5098 68.916 71.2168C68.6491 70.9238 68.291 70.7773 67.8418 70.7773C66.9889 70.7773 66.4909 71.321 66.3477 72.4082C66.3021 72.7533 66.2793 73.2285 66.2793 73.834C66.2793 74.8952 66.4062 75.6309 66.6602 76.041C66.9141 76.4512 67.3177 76.6562 67.8711 76.6562ZM73.3789 73.6191C73.3789 72.5645 73.584 71.627 73.9941 70.8066C74.4043 69.9798 74.9935 69.3451 75.7617 68.9023C76.5299 68.4596 77.4316 68.2383 78.4668 68.2383C80.0488 68.2383 81.2956 68.7298 82.207 69.7129C83.1185 70.6895 83.5742 72.0208 83.5742 73.707V73.8242C83.5742 75.4714 83.1152 76.7799 82.1973 77.75C81.2858 78.7135 80.0488 79.1953 78.4863 79.1953C76.9824 79.1953 75.7747 78.7461 74.8633 77.8477C73.9518 76.9427 73.4603 75.7188 73.3887 74.1758L73.3789 73.6191ZM76.6699 73.8242C76.6699 74.8008 76.8229 75.5169 77.1289 75.9727C77.4349 76.4284 77.8874 76.6562 78.4863 76.6562C79.6582 76.6562 80.2572 75.7546 80.2832 73.9512V73.6191C80.2832 71.7246 79.6777 70.7773 78.4668 70.7773C77.3665 70.7773 76.7708 71.5944 76.6797 73.2285L76.6699 73.8242ZM88.1348 68.4336L88.2422 69.6738C88.9909 68.7168 89.9967 68.2383 91.2598 68.2383C92.5944 68.2383 93.4961 68.7689 93.9648 69.8301C94.681 68.7689 95.7161 68.2383 97.0703 68.2383C99.2122 68.2383 100.312 69.5339 100.371 72.125V79H97.0703V72.3301C97.0703 71.7897 96.9792 71.3958 96.7969 71.1484C96.6146 70.901 96.2826 70.7773 95.8008 70.7773C95.1497 70.7773 94.6647 71.0671 94.3457 71.6465L94.3555 71.7832V79H91.0547V72.3496C91.0547 71.7962 90.9668 71.3958 90.791 71.1484C90.6152 70.901 90.2799 70.7773 89.7852 70.7773C89.1536 70.7773 88.6719 71.0671 88.3398 71.6465V79H85.0488V68.4336H88.1348Z" fill="white"/>
<path d="M28.6523 73.6387C28.6523 71.9655 29.0137 70.6471 29.7363 69.6836C30.459 68.7201 31.4681 68.2383 32.7637 68.2383C33.7077 68.2383 34.502 68.6094 35.1465 69.3516V64H38.4473V79H35.4883L35.3223 77.8672C34.6452 78.7526 33.7858 79.1953 32.7441 79.1953C31.4876 79.1953 30.4915 78.7135 29.7559 77.75C29.0202 76.7865 28.6523 75.416 28.6523 73.6387ZM31.9434 73.8438C31.9434 75.7188 32.4902 76.6562 33.584 76.6562C34.3132 76.6562 34.834 76.3503 35.1465 75.7383V71.7148C34.847 71.0898 34.3327 70.7773 33.6035 70.7773C32.5879 70.7773 32.0378 71.5977 31.9531 73.2383L31.9434 73.8438ZM39.9023 73.6191C39.9023 72.5645 40.1074 71.627 40.5176 70.8066C40.9277 69.9798 41.5169 69.3451 42.2852 68.9023C43.0534 68.4596 43.9551 68.2383 44.9902 68.2383C46.5723 68.2383 47.819 68.7298 48.7305 69.7129C49.6419 70.6895 50.0977 72.0208 50.0977 73.707V73.8242C50.0977 75.4714 49.6387 76.7799 48.7207 77.75C47.8092 78.7135 46.5723 79.1953 45.0098 79.1953C43.5059 79.1953 42.2982 78.7461 41.3867 77.8477C40.4753 76.9427 39.9837 75.7188 39.9121 74.1758L39.9023 73.6191ZM43.1934 73.8242C43.1934 74.8008 43.3464 75.5169 43.6523 75.9727C43.9583 76.4284 44.4108 76.6562 45.0098 76.6562C46.1816 76.6562 46.7806 75.7546 46.8066 73.9512V73.6191C46.8066 71.7246 46.2012 70.7773 44.9902 70.7773C43.89 70.7773 43.2943 71.5944 43.2031 73.2285L43.1934 73.8242ZM55.3809 65.8066V68.4336H57.1191V70.7188H55.3809V75.5527C55.3809 75.9499 55.4525 76.2266 55.5957 76.3828C55.7389 76.5391 56.0221 76.6172 56.4453 76.6172C56.7708 76.6172 57.0443 76.5977 57.2656 76.5586V78.9121C56.6732 79.1009 56.0547 79.1953 55.4102 79.1953C54.2773 79.1953 53.4408 78.9284 52.9004 78.3945C52.36 77.8607 52.0898 77.0501 52.0898 75.9629V70.7188H50.7422V68.4336H52.0898V65.8066H55.3809Z" fill="#F6AE2D"/>
<path d="M29.9996 30.5C29.9443 30.6036 29.9821 35.1592 30.019 39.963L30.0927 48.6772L30.5903 49.8167C31.18 51.1633 32.1382 52.5488 33.1149 53.4552C34.4602 54.7111 36.819 56.1225 38.754 56.8088C39.9703 57.2361 42.8635 57.8317 44.135 57.8964L45.4619 57.9741V47.9392L45 36C43.5 34.5 41 33.5 36.5 32C32 30.5 30.0733 30.3705 29.9996 30.5Z" fill="url(#paint1_linear)"/>
</g>
<defs>
<linearGradient id="paint0_linear" x1="50" y1="61.708" x2="50" y2="-0.0716861" gradientUnits="userSpaceOnUse">
<stop stop-color="white"/>
<stop offset="1" stop-color="white" stop-opacity="0.35"/>
</linearGradient>
<linearGradient id="paint1_linear" x1="37.731" y1="57.9741" x2="37.731" y2="31.0001" gradientUnits="userSpaceOnUse">
<stop stop-color="white"/>
<stop offset="1" stop-color="white" stop-opacity="0.35"/>
</linearGradient>
<clipPath id="clip0">
<rect width="102" height="84" fill="white"/>
</clipPath>
</defs>
</svg>
